<?xml version="1.0" encoding="UTF-8" standalone="no"?>
<!-- Created with Inkscape (http://www.inkscape.org/) -->

<svg
   xmlns:dc="http://purl.org/dc/elements/1.1/"
   xmlns:cc="http://creativecommons.org/ns#"
   xmlns:rdf="http://www.w3.org/1999/02/22-rdf-syntax-ns#"
   xmlns:svg="http://www.w3.org/2000/svg"
   xmlns="http://www.w3.org/2000/svg"
   xmlns:xlink="http://www.w3.org/1999/xlink"
   xmlns:sodipodi="http://sodipodi.sourceforge.net/DTD/sodipodi-0.dtd"
   xmlns:inkscape="http://www.inkscape.org/namespaces/inkscape"
   width="520"
   height="610"
   id="svg8248"
   version="1.1"
   inkscape:version="1.2.2 (b0a8486541, 2022-12-01)"
   sodipodi:docname="big-fred.svg"
   inkscape:export-filename="big-fred.png"
   inkscape:export-xdpi="90"
   inkscape:export-ydpi="90">
  <defs
     id="defs8250">
    <filter
       color-interpolation-filters="sRGB"
       id="filter4685"
       inkscape:collect="always">
      <feGaussianBlur
         id="feGaussianBlur4687"
         stdDeviation="6.3462547"
         inkscape:collect="always" />
    </filter>
    <filter
       color-interpolation-filters="sRGB"
       id="filter4330"
       inkscape:collect="always">
      <feGaussianBlur
         id="feGaussianBlur4332"
         stdDeviation="2.1154182"
         inkscape:collect="always" />
    </filter>
    <radialGradient
       inkscape:collect="always"
       xlink:href="#linearGradient4671-1"
       id="radialGradient8084"
       gradientUnits="userSpaceOnUse"
       gradientTransform="matrix(1.9731017,0,0,2.1944827,-820.48,-1409.561)"
       cx="817.00006"
       cy="1136.282"
       fx="817.00006"
       fy="1136.282"
       r="102.08712" />
    <linearGradient
       id="linearGradient4671-1">
      <stop
         id="stop4673-3"
         offset="0"
         style="stop-color:#ffffff;stop-opacity:1;" />
      <stop
         id="stop4675-3"
         offset="1"
         style="stop-color:#646464;stop-opacity:1;" />
    </linearGradient>
    <clipPath
       clipPathUnits="userSpaceOnUse"
       id="clipPath3850">
      <rect
         style="fill:#ffffff;fill-opacity:1;fill-rule:nonzero;stroke:none"
         id="rect3852"
         width="135.80841"
         height="159.31371"
         x="-910.8623"
         y="1000.3621"
         transform="scale(-1,1)" />
    </clipPath>
  </defs>
  <sodipodi:namedview
     id="base"
     pagecolor="#ffffff"
     bordercolor="#666666"
     borderopacity="1.0"
     inkscape:pageopacity="0.0"
     inkscape:pageshadow="2"
     inkscape:zoom="0.2962963"
     inkscape:cx="-614.73214"
     inkscape:cy="334.78571"
     inkscape:document-units="px"
     inkscape:current-layer="layer1"
     showgrid="false"
     inkscape:window-width="1912"
     inkscape:window-height="1153"
     inkscape:window-x="0"
     inkscape:window-y="0"
     inkscape:window-maximized="1" />
  <metadata
     id="metadata8253">
    <rdf:RDF>
      <cc:Work
         rdf:about="">
        <dc:format>image/svg+xml</dc:format>
        <dc:type
           rdf:resource="http://purl.org/dc/dcmitype/StillImage" />
        <dc:title />
      </cc:Work>
    </rdf:RDF>
  </metadata>
  <g
     inkscape:label="Layer 1"
     inkscape:groupmode="layer"
     id="layer1"
     transform="translate(0,-442.36218)">
    <g
       transform="matrix(-3.8289235,0,0,3.8289235,3487.6222,-3387.9479)"
       style="display:inline"
       inkscape:label="Fred"
       id="g8072"
       clip-path="url(#clipPath3850)">
      <path
         inkscape:connector-curvature="0"
         inkscape:export-ydpi="90"
         inkscape:export-xdpi="90"
         inkscape:export-filename="./path4328.png"
         inkscape:label="white outline"
         id="path8074"
         d="m 780.97371,923.538 c -12.74501,0.2277 -24.52744,15.4522 -24.52744,15.4522 -19.42482,-16.0311 -19.30303,21.5105 -19.30303,21.5105 -18.07057,8.3399 -13.392,37.9194 -13.392,37.9194 l 5.64133,1.2509 c -4.52915,8.872 -7.0884,18.8869 -7.0884,29.4819 0,3.128 0.23209,6.1854 0.6622,9.1978 -9.55781,1.6191 -27.95137,5.8627 -24.7726,14.1278 l -1.69242,3.4093 c 0,0 -8.52445,3.4102 -6.81858,8.9524 1.02298,3.3235 9.22577,9.9867 15.64844,14.8146 -2.34221,0.9247 -9.75279,4.272 -7.92237,9.2958 2.16499,5.9387 29.75178,21.9276 29.75178,21.9276 l -13.51461,-20.554 c 0,0 24.23731,-2.8555 32.76861,-10.6203 1.07974,0.8873 2.17564,1.7553 3.31119,2.5753 -4.69572,2.2329 -7.788,5.1812 -6.32813,8.977 l -1.71685,3.4093 c 0,0 -8.52445,3.4104 -6.81869,8.9526 1.70593,5.5421 23.44836,20.4558 23.44819,20.4558 l -10.66937,-19.1805 c 0,0 12.05346,-1.6684 20.38222,-5.9846 -0.87478,11.9232 8.7736,26.5275 24.77277,35.7364 15.49996,8.9216 32.35163,10.0867 42.35874,4.0225 -4.97444,-0.7513 -10.43033,-2.6341 -15.69747,-5.6659 -14.04621,-8.0846 -21.64585,-21.2408 -16.97302,-29.3592 4.65723,-8.0914 19.76734,-8.1265 33.77427,-0.1227 -4.22767,-5.4715 -10.05327,-10.5752 -17.12017,-14.6428 -0.27837,-0.1603 -0.55465,-0.3107 -0.83385,-0.466 3.99215,-1.9129 7.7553,-4.2178 11.258,-6.8432 0.84703,3.8902 2.32539,7.923 4.4885,11.8468 2.85699,5.1823 6.48599,9.4662 10.3996,12.6071 -5.62031,-10.2708 -5.41844,-21.2318 0.51505,-24.5029 5.95346,-3.2821 15.41524,2.4294 21.09357,12.7297 2.12948,3.8626 3.42135,7.8347 3.89988,11.4543 3.12422,-4.9473 3.77479,-12.3022 1.83957,-20.1125 3.27871,-2.0742 19.88185,-12.7669 21.58408,-17.7824 1.88116,-5.5421 -7.52993,-8.9524 -7.52993,-8.9524 l -1.86412,-3.4093 c 1.77493,-4.184 -2.56333,-7.3373 -8.63361,-9.6393 3.27921,-2.5058 6.08341,-5.0081 6.59796,-6.5243 1.36821,-4.0345 -5.49417,-6.4997 -5.49417,-6.4997 l -1.34901,-2.4773 c 2.53697,-5.9799 -12.0389,-9.0597 -19.74456,-10.2524 -4.51333,-32.0475 -32.5054,-56.7564 -66.19936,-56.7564 -16.17755,0 -31.0426,5.687 -42.62873,15.1579 2.16412,-6.1506 3.6792,-11.16 3.6792,-11.16 8.01018,1.7631 16.01633,-19.4257 16.01633,-19.4257 6.94246,1.5281 33.92148,-7.0884 33.92148,-7.0884 0,0 8.90586,9.2184 13.22018,2.3301 4.31521,-6.8868 13.22024,0.1227 13.22024,0.1227 -20.5767,-28.60204 -26.21974,-8.0205 -26.21974,-8.0205 l -5.71479,-4.6112 c -4.34278,-5.2685 -9.07657,-7.1462 -13.68636,-7.0638 z m 0.19613,3.0414 c 8.85434,-0.2775 12.09207,8.1187 12.09207,8.1185 -4.06259,2.5979 -30.97801,1.9132 -30.97801,1.9132 8.07476,-7.3746 14.24813,-9.8864 18.88594,-10.0317 z m -30.29126,12.4108 c 1.93764,-0.06 3.31114,0.6622 3.31114,0.6622 l -9.81097,14.8636 c -2.36852,2.5701 -1.01554,5.4843 0.49061,7.4564 1.17703,0.9385 2.10879,1.8122 2.15837,2.281 0,0 -1.11261,-0.912 -2.15837,-2.281 -2.18871,-1.7454 -5.24878,-3.7036 -5.24878,-3.7036 1.84823,-16.2057 7.55889,-19.1634 11.258,-19.2786 z M 737.51113,963.91 c -4.33865,3.8466 -1.32447,25.8762 -1.32447,25.8764 l -9.71279,4.415 C 725.0938,974.6943 737.51113,963.91 737.51113,963.91 z m 51.65477,8.3394 c 32.05428,0 57.8845,25.4826 57.88467,56.9035 0,0.4538 -0.0143,0.8978 -0.0243,1.349 -15.73255,23.2599 -57.60304,8.702 -81.92154,-8.3883 -23.07716,-16.2181 -31.71788,1.3347 -33.8478,7.162 -5e-5,-0.041 0,-0.082 0,-0.1227 0,-31.4209 25.85483,-56.9035 57.90927,-56.9035 z m -7.01494,36.742 31.37056,23.9387 c 6.99238,-11.8657 -31.37056,-23.9387 -31.37056,-23.9387 z m 52.66038,1.9376 c -5.43786,-0.174 -7.52999,22.4672 -7.52999,22.4672 l 9.32047,-21.6087 c -0.63557,-0.5562 -1.22794,-0.8404 -1.79048,-0.8585 z m 20.55392,10.7186 c 10.9927,-0.044 18.02766,7.7261 18.02766,7.7261 l -0.17171,3.8753 c -3.59205,0 -20.87278,-7.1375 -20.87278,-7.1375 l -0.5151,-4.1942 c 1.21873,-0.1891 2.39472,-0.2652 3.53193,-0.2697 z m -98.89444,12.2636 c 4.13528,-0.1027 9.98267,3.9244 9.98267,3.9244 51.38086,20.491 78.58569,0.7113 78.58569,0.7113 -7.55613,19.0766 -81.6056,15.5462 -86.14022,14.839 -4.53451,-0.7071 -8.29969,-10.6136 -6.0336,-16.9729 0.63761,-1.7886 1.98734,-2.4616 3.60546,-2.5018 z m 119.47291,0.7359 c 0,0 7.88144,2.0141 3.4338,3.4093 l -3.4338,-3.4093 z m -20.3087,1.3735 c 6.66911,3.0311 16.04098,4.1941 16.04098,4.1941 l -2.2811,3.7282 c -5.38545,-1.4379 -10.78911,-2.3282 -14.47112,-2.8452 0.31169,-1.6687 0.53044,-3.3672 0.71124,-5.0771 z m -132.84031,4.5621 c 1.41697,0.01 2.87183,0.1326 4.39044,0.3924 l -0.63777,5.7394 c 0,0 -21.52335,9.811 -25.999,9.811 l -0.22085,-5.3225 c 0,0 8.77018,-10.6808 22.46718,-10.6203 z m 134.06676,2.9678 c 15.10736,-0.061 24.77261,10.6203 24.77261,10.6203 l -0.24523,5.3225 c -4.93736,0 -28.67259,-9.7864 -28.67259,-9.7864 l -0.71129,-5.764 c 1.67493,-0.2598 3.2936,-0.3862 4.8565,-0.3924 z m -14.42214,6.0582 c -8.44884,10.8696 -61.73491,27.4936 -63.03544,28.133 -1.30053,0.6394 -9.73734,-3.2014 -9.73734,-7.6771 0,-4.4757 4.53754,-7.6771 4.53754,-7.6771 11.04736,5.7545 68.23524,-12.7788 68.23524,-12.7788 z m -114.19953,6.6715 c 0.90489,1.9625 1.92776,3.8605 3.01688,5.7149 -12.04194,2.3374 -26.25146,6.6447 -23.03121,13.7108 l -0.22079,0.3679 -5.54315,-9.9581 c 0,0 19.00955,-2.6326 25.77827,-9.8355 z m 121.2143,1.2999 c 0.0541,0.08 0.0903,0.1661 0.14727,0.2453 -0.0754,-0.029 -0.14545,-0.07 -0.22079,-0.098 0.0243,-0.049 0.0491,-0.098 0.0738,-0.1472 z m -152.31499,0.8585 -4.26782,4.6847 c -5.54221,-1.9181 4.26782,-4.6847 4.26782,-4.6847 z m 188.0269,2.9923 c 0,0 10.79728,2.7666 4.6848,4.6848 l -4.6848,-4.6848 z m -145.74163,1.5207 c 1.79842,0.01 3.66458,0.1387 5.59218,0.417 l -0.80942,6.1809 c 0,0 -27.30764,10.4977 -32.98945,10.4977 l -0.26971,-5.7148 c 0,0 11.09054,-11.4457 28.4764,-11.3808 z m 95.09263,0.024 c -3.72613,9.8024 5.54315,36.1043 5.54315,36.1043 0,0 -4.81812,-6.8527 -8.38833,-18.7879 -3.57026,-11.9353 2.84518,-17.3164 2.84518,-17.3164 z m 24.87073,1.2509 c 8.90128,3.4957 19.89166,4.8565 19.89166,4.8565 l -7.7751,15.4032 c -0.88167,-3.1753 -2.15313,-6.3976 -3.89993,-9.5657 -2.31226,-4.1947 -5.14768,-7.8027 -8.21663,-10.694 z m -91.41355,15.1334 c 1.41691,0.01 2.87182,0.1327 4.39039,0.3924 l -0.63778,5.764 c 0,0 -21.52329,9.7864 -25.99894,9.7864 l -0.1963,-5.3224 c 0,0 8.74546,-10.6808 22.44263,-10.6204 z m 95.31337,0.7604 c 0.20336,-0.01 0.40154,-0.01 0.61318,0 0.78161,0.014 1.60835,0.1395 2.47734,0.417 3.50264,7.8904 2.33007,15.3295 2.33007,15.3295 0,0 -1.54768,-6.5943 -4.4885,-9.9336 -2.94093,-3.339 -5.69031,-4.2432 -5.69031,-4.2432 -0.36695,0.2791 1.70803,-1.4095 4.75822,-1.5697 z m -156.41111,1.9867 -5.39599,5.0036 c -7.03457,-2.0563 5.39599,-5.0036 5.39599,-5.0036 z m 100.56226,9.3204 c 0.29007,-0.01 0.58951,-0.012 0.90749,0 10.18179,0.3771 12.82785,5.2979 12.82785,5.2979 0,0 -8.30245,-1.9008 -12.82785,-0.3925 -4.52513,1.5085 -6.0336,4.1452 -6.0336,4.1452 0.36519,0.7307 -3.8654,-8.797 5.12611,-9.0506 z m -36.42309,1.8886 c 5.36003,21.0678 49.766,47.5341 49.766,47.5341 0,0 -15.29312,-3.1398 -34.43642,-16.139 -19.14325,-12.9993 -15.32958,-31.3951 -15.32958,-31.3951 z m -28.69714,3.9244 -4.26771,4.6847 c -5.54227,-1.9181 4.26771,-4.6847 4.26771,-4.6847 z"
         style="color:#000000;fill:none;stroke:#000000;stroke-width:4;stroke-miterlimit:4;stroke-opacity:1;stroke-dasharray:none;marker:none;visibility:visible;display:inline;overflow:visible;filter:url(#filter4685)" />
      <path
         inkscape:connector-curvature="0"
         inkscape:export-ydpi="90"
         inkscape:export-xdpi="90"
         inkscape:export-filename="./path4328.png"
         style="color:#000000;fill:none;stroke:#000000;stroke-width:4;stroke-miterlimit:4;stroke-opacity:1;stroke-dasharray:none;marker:none;visibility:visible;display:inline;overflow:visible;filter:url(#filter4330)"
         d="m 780.97371,923.538 c -12.74501,0.2277 -24.52744,15.4522 -24.52744,15.4522 -19.42482,-16.0311 -19.30303,21.5105 -19.30303,21.5105 -18.07057,8.3399 -13.392,37.9194 -13.392,37.9194 l 5.64133,1.2509 c -4.52915,8.872 -7.0884,18.8869 -7.0884,29.4819 0,3.128 0.23209,6.1854 0.6622,9.1978 -9.55781,1.6191 -27.95137,5.8627 -24.7726,14.1278 l -1.69242,3.4093 c 0,0 -8.52445,3.4102 -6.81858,8.9524 1.02298,3.3235 9.22577,9.9867 15.64844,14.8146 -2.34221,0.9247 -9.75279,4.272 -7.92237,9.2958 2.16499,5.9387 29.75178,21.9276 29.75178,21.9276 l -13.51461,-20.554 c 0,0 24.23731,-2.8555 32.76861,-10.6203 1.07974,0.8873 2.17564,1.7553 3.31119,2.5753 -4.69572,2.2329 -7.788,5.1812 -6.32813,8.977 l -1.71685,3.4093 c 0,0 -8.52445,3.4104 -6.81869,8.9526 1.70593,5.5421 23.44836,20.4558 23.44819,20.4558 l -10.66937,-19.1805 c 0,0 12.05346,-1.6684 20.38222,-5.9846 -0.87478,11.9232 8.7736,26.5275 24.77277,35.7364 15.49996,8.9216 32.35163,10.0867 42.35874,4.0225 -4.97444,-0.7513 -10.43033,-2.6341 -15.69747,-5.6659 -14.04621,-8.0846 -21.64585,-21.2408 -16.97302,-29.3592 4.65723,-8.0914 19.76734,-8.1265 33.77427,-0.1227 -4.22767,-5.4715 -10.05327,-10.5752 -17.12017,-14.6428 -0.27837,-0.1603 -0.55465,-0.3107 -0.83385,-0.466 3.99215,-1.9129 7.7553,-4.2178 11.258,-6.8432 0.84703,3.8902 2.32539,7.923 4.4885,11.8468 2.85699,5.1823 6.48599,9.4662 10.3996,12.6071 -5.62031,-10.2708 -5.41844,-21.2318 0.51505,-24.5029 5.95346,-3.2821 15.41524,2.4294 21.09357,12.7297 2.12948,3.8626 3.42135,7.8347 3.89988,11.4543 3.12422,-4.9473 3.77479,-12.3022 1.83957,-20.1125 3.27871,-2.0742 19.88185,-12.7669 21.58408,-17.7824 1.88116,-5.5421 -7.52993,-8.9524 -7.52993,-8.9524 l -1.86412,-3.4093 c 1.77493,-4.184 -2.56333,-7.3373 -8.63361,-9.6393 3.27921,-2.5058 6.08341,-5.0081 6.59796,-6.5243 1.36821,-4.0345 -5.49417,-6.4997 -5.49417,-6.4997 l -1.34901,-2.4773 c 2.53697,-5.9799 -12.0389,-9.0597 -19.74456,-10.2524 -4.51333,-32.0475 -32.5054,-56.7564 -66.19936,-56.7564 -16.17755,0 -31.0426,5.687 -42.62873,15.1579 2.16412,-6.1506 3.6792,-11.16 3.6792,-11.16 8.01018,1.7631 16.01633,-19.4257 16.01633,-19.4257 6.94246,1.5281 33.92148,-7.0884 33.92148,-7.0884 0,0 8.90586,9.2184 13.22018,2.3301 4.31521,-6.8868 13.22024,0.1227 13.22024,0.1227 -20.5767,-28.60204 -26.21974,-8.0205 -26.21974,-8.0205 l -5.71479,-4.6112 c -4.34278,-5.2685 -9.07657,-7.1462 -13.68636,-7.0638 z m 0.19613,3.0414 c 8.85434,-0.2775 12.09207,8.1187 12.09207,8.1185 -4.06259,2.5979 -30.97801,1.9132 -30.97801,1.9132 8.07476,-7.3746 14.24813,-9.8864 18.88594,-10.0317 z m -30.29126,12.4108 c 1.93764,-0.06 3.31114,0.6622 3.31114,0.6622 l -9.81097,14.8636 c -2.36852,2.5701 -1.01554,5.4843 0.49061,7.4564 1.17703,0.9385 2.10879,1.8122 2.15837,2.281 0,0 -1.11261,-0.912 -2.15837,-2.281 -2.18871,-1.7454 -5.24878,-3.7036 -5.24878,-3.7036 1.84823,-16.2057 7.55889,-19.1634 11.258,-19.2786 z M 737.51113,963.91 c -4.33865,3.8466 -1.32447,25.8762 -1.32447,25.8764 l -9.71279,4.415 C 725.0938,974.6943 737.51113,963.91 737.51113,963.91 z m 51.65477,8.3394 c 32.05428,0 57.8845,25.4826 57.88467,56.9035 0,0.4538 -0.0143,0.8978 -0.0243,1.349 -15.73255,23.2599 -57.60304,8.702 -81.92154,-8.3883 -23.07716,-16.2181 -31.71788,1.3347 -33.8478,7.162 -5e-5,-0.041 0,-0.082 0,-0.1227 0,-31.4209 25.85483,-56.9035 57.90927,-56.9035 z m -7.01494,36.742 31.37056,23.9387 c 6.99238,-11.8657 -31.37056,-23.9387 -31.37056,-23.9387 z m 52.66038,1.9376 c -5.43786,-0.174 -7.52999,22.4672 -7.52999,22.4672 l 9.32047,-21.6087 c -0.63557,-0.5562 -1.22794,-0.8404 -1.79048,-0.8585 z m 20.55392,10.7186 c 10.9927,-0.044 18.02766,7.7261 18.02766,7.7261 l -0.17171,3.8753 c -3.59205,0 -20.87278,-7.1375 -20.87278,-7.1375 l -0.5151,-4.1942 c 1.21873,-0.1891 2.39472,-0.2652 3.53193,-0.2697 z m -98.89444,12.2636 c 4.13528,-0.1027 9.98267,3.9244 9.98267,3.9244 51.38086,20.491 78.58569,0.7113 78.58569,0.7113 -7.55613,19.0766 -81.6056,15.5462 -86.14022,14.839 -4.53451,-0.7071 -8.29969,-10.6136 -6.0336,-16.9729 0.63761,-1.7886 1.98734,-2.4616 3.60546,-2.5018 z m 119.47291,0.7359 c 0,0 7.88144,2.0141 3.4338,3.4093 l -3.4338,-3.4093 z m -20.3087,1.3735 c 6.66911,3.0311 16.04098,4.1941 16.04098,4.1941 l -2.2811,3.7282 c -5.38545,-1.4379 -10.78911,-2.3282 -14.47112,-2.8452 0.31169,-1.6687 0.53044,-3.3672 0.71124,-5.0771 z m -132.84031,4.5621 c 1.41697,0.01 2.87183,0.1326 4.39044,0.3924 l -0.63777,5.7394 c 0,0 -21.52335,9.811 -25.999,9.811 l -0.22085,-5.3225 c 0,0 8.77018,-10.6808 22.46718,-10.6203 z m 134.06676,2.9678 c 15.10736,-0.061 24.77261,10.6203 24.77261,10.6203 l -0.24523,5.3225 c -4.93736,0 -28.67259,-9.7864 -28.67259,-9.7864 l -0.71129,-5.764 c 1.67493,-0.2598 3.2936,-0.3862 4.8565,-0.3924 z m -14.42214,6.0582 c -8.44884,10.8696 -61.73491,27.4936 -63.03544,28.133 -1.30053,0.6394 -9.73734,-3.2014 -9.73734,-7.6771 0,-4.4757 4.53754,-7.6771 4.53754,-7.6771 11.04736,5.7545 68.23524,-12.7788 68.23524,-12.7788 z m -114.19953,6.6715 c 0.90489,1.9625 1.92776,3.8605 3.01688,5.7149 -12.04194,2.3374 -26.25146,6.6447 -23.03121,13.7108 l -0.22079,0.3679 -5.54315,-9.9581 c 0,0 19.00955,-2.6326 25.77827,-9.8355 z m 121.2143,1.2999 c 0.0541,0.08 0.0903,0.1661 0.14727,0.2453 -0.0754,-0.029 -0.14545,-0.07 -0.22079,-0.098 0.0243,-0.049 0.0491,-0.098 0.0738,-0.1472 z m -152.31499,0.8585 -4.26782,4.6847 c -5.54221,-1.9181 4.26782,-4.6847 4.26782,-4.6847 z m 188.0269,2.9923 c 0,0 10.79728,2.7666 4.6848,4.6848 l -4.6848,-4.6848 z m -145.74163,1.5207 c 1.79842,0.01 3.66458,0.1387 5.59218,0.417 l -0.80942,6.1809 c 0,0 -27.30764,10.4977 -32.98945,10.4977 l -0.26971,-5.7148 c 0,0 11.09054,-11.4457 28.4764,-11.3808 z m 95.09263,0.024 c -3.72613,9.8024 5.54315,36.1043 5.54315,36.1043 0,0 -4.81812,-6.8527 -8.38833,-18.7879 -3.57026,-11.9353 2.84518,-17.3164 2.84518,-17.3164 z m 24.87073,1.2509 c 8.90128,3.4957 19.89166,4.8565 19.89166,4.8565 l -7.7751,15.4032 c -0.88167,-3.1753 -2.15313,-6.3976 -3.89993,-9.5657 -2.31226,-4.1947 -5.14768,-7.8027 -8.21663,-10.694 z m -91.41355,15.1334 c 1.41691,0.01 2.87182,0.1327 4.39039,0.3924 l -0.63778,5.764 c 0,0 -21.52329,9.7864 -25.99894,9.7864 l -0.1963,-5.3224 c 0,0 8.74546,-10.6808 22.44263,-10.6204 z m 95.31337,0.7604 c 0.20336,-0.01 0.40154,-0.01 0.61318,0 0.78161,0.014 1.60835,0.1395 2.47734,0.417 3.50264,7.8904 2.33007,15.3295 2.33007,15.3295 0,0 -1.54768,-6.5943 -4.4885,-9.9336 -2.94093,-3.339 -5.69031,-4.2432 -5.69031,-4.2432 -0.36695,0.2791 1.70803,-1.4095 4.75822,-1.5697 z m -156.41111,1.9867 -5.39599,5.0036 c -7.03457,-2.0563 5.39599,-5.0036 5.39599,-5.0036 z m 100.56226,9.3204 c 0.29007,-0.01 0.58951,-0.012 0.90749,0 10.18179,0.3771 12.82785,5.2979 12.82785,5.2979 0,0 -8.30245,-1.9008 -12.82785,-0.3925 -4.52513,1.5085 -6.0336,4.1452 -6.0336,4.1452 0.36519,0.7307 -3.8654,-8.797 5.12611,-9.0506 z m -36.42309,1.8886 c 5.36003,21.0678 49.766,47.5341 49.766,47.5341 0,0 -15.29312,-3.1398 -34.43642,-16.139 -19.14325,-12.9993 -15.32958,-31.3951 -15.32958,-31.3951 z m -28.69714,3.9244 -4.26771,4.6847 c -5.54227,-1.9181 4.26771,-4.6847 4.26771,-4.6847 z"
         id="path8076"
         inkscape:label="white outline" />
      <path
         inkscape:connector-curvature="0"
         inkscape:export-ydpi="90"
         inkscape:export-xdpi="90"
         inkscape:export-filename="./path4328.png"
         style="color:#000000;fill:url(#radialGradient8084);fill-opacity:1;stroke:none;stroke-width:4;marker:none;visibility:visible;display:inline;overflow:visible"
         d="m 780.97371,923.538 c -12.74501,0.2277 -24.52744,15.4522 -24.52744,15.4522 -19.42482,-16.0311 -19.30303,21.5105 -19.30303,21.5105 -18.07057,8.3399 -13.392,37.9194 -13.392,37.9194 l 5.64133,1.2509 c -4.52915,8.872 -7.0884,18.8869 -7.0884,29.4819 0,3.128 0.23209,6.1854 0.6622,9.1978 -9.55781,1.6191 -27.95137,5.8627 -24.7726,14.1278 l -1.69242,3.4093 c 0,0 -8.52445,3.4102 -6.81858,8.9524 1.02298,3.3235 9.22577,9.9867 15.64844,14.8146 -2.34221,0.9247 -9.75279,4.272 -7.92237,9.2958 2.16499,5.9387 29.75178,21.9276 29.75178,21.9276 l -13.51461,-20.554 c 0,0 24.23731,-2.8555 32.76861,-10.6203 1.07974,0.8873 2.17564,1.7553 3.31119,2.5753 -4.69572,2.2329 -7.788,5.1812 -6.32813,8.977 l -1.71685,3.4093 c 0,0 -8.52445,3.4104 -6.81869,8.9526 1.70593,5.5421 23.44836,20.4558 23.44819,20.4558 l -10.66937,-19.1805 c 0,0 12.05346,-1.6684 20.38222,-5.9846 -0.87478,11.9232 8.7736,26.5275 24.77277,35.7364 15.49996,8.9216 32.35163,10.0867 42.35874,4.0225 -4.97444,-0.7513 -10.43033,-2.6341 -15.69747,-5.6659 -14.04621,-8.0846 -21.64585,-21.2408 -16.97302,-29.3592 4.65723,-8.0914 19.76734,-8.1265 33.77427,-0.1227 -4.22767,-5.4715 -10.05327,-10.5752 -17.12017,-14.6428 -0.27837,-0.1603 -0.55465,-0.3107 -0.83385,-0.466 3.99215,-1.9129 7.7553,-4.2178 11.258,-6.8432 0.84703,3.8902 2.32539,7.923 4.4885,11.8468 2.85699,5.1823 6.48599,9.4662 10.3996,12.6071 -5.62031,-10.2708 -5.41844,-21.2318 0.51505,-24.5029 5.95346,-3.2821 15.41524,2.4294 21.09357,12.7297 2.12948,3.8626 3.42135,7.8347 3.89988,11.4543 3.12422,-4.9473 3.77479,-12.3022 1.83957,-20.1125 3.27871,-2.0742 19.88185,-12.7669 21.58408,-17.7824 1.88116,-5.5421 -7.52993,-8.9524 -7.52993,-8.9524 l -1.86412,-3.4093 c 1.77493,-4.184 -2.56333,-7.3373 -8.63361,-9.6393 3.27921,-2.5058 6.08341,-5.0081 6.59796,-6.5243 1.36821,-4.0345 -5.49417,-6.4997 -5.49417,-6.4997 l -1.34901,-2.4773 c 2.53697,-5.9799 -12.0389,-9.0597 -19.74456,-10.2524 -4.51333,-32.0475 -32.5054,-56.7564 -66.19936,-56.7564 -16.17755,0 -31.0426,5.687 -42.62873,15.1579 2.16412,-6.1506 3.6792,-11.16 3.6792,-11.16 8.01018,1.7631 16.01633,-19.4257 16.01633,-19.4257 6.94246,1.5281 33.92148,-7.0884 33.92148,-7.0884 0,0 8.90586,9.2184 13.22018,2.3301 4.31521,-6.8868 13.22024,0.1227 13.22024,0.1227 -20.5767,-28.60204 -26.21974,-8.0205 -26.21974,-8.0205 l -5.71479,-4.6112 c -4.34278,-5.2685 -9.07657,-7.1462 -13.68636,-7.0638 z m 0.19613,3.0414 c 8.85434,-0.2775 12.09207,8.1187 12.09207,8.1185 -4.06259,2.5979 -30.97801,1.9132 -30.97801,1.9132 8.07476,-7.3746 14.24813,-9.8864 18.88594,-10.0317 z m -30.29126,12.4108 c 1.93764,-0.06 3.31114,0.6622 3.31114,0.6622 l -9.81097,14.8636 c -2.36852,2.5701 -1.01554,5.4843 0.49061,7.4564 1.17703,0.9385 2.10879,1.8122 2.15837,2.281 0,0 -1.11261,-0.912 -2.15837,-2.281 -2.18871,-1.7454 -5.24878,-3.7036 -5.24878,-3.7036 1.84823,-16.2057 7.55889,-19.1634 11.258,-19.2786 z M 737.51113,963.91 c -4.33865,3.8466 -1.32447,25.8762 -1.32447,25.8764 l -9.71279,4.415 C 725.0938,974.6943 737.51113,963.91 737.51113,963.91 z m 51.65477,8.3394 c 32.05428,0 57.8845,25.4826 57.88467,56.9035 0,0.4538 -0.0143,0.8978 -0.0243,1.349 -15.73255,23.2599 -57.60304,8.702 -81.92154,-8.3883 -23.07716,-16.2181 -31.71788,1.3347 -33.8478,7.162 -5e-5,-0.041 0,-0.082 0,-0.1227 0,-31.4209 25.85483,-56.9035 57.90927,-56.9035 z m -7.01494,36.742 31.37056,23.9387 c 6.99238,-11.8657 -31.37056,-23.9387 -31.37056,-23.9387 z m 52.66038,1.9376 c -5.43786,-0.174 -7.52999,22.4672 -7.52999,22.4672 l 9.32047,-21.6087 c -0.63557,-0.5562 -1.22794,-0.8404 -1.79048,-0.8585 z m 20.55392,10.7186 c 10.9927,-0.044 18.02766,7.7261 18.02766,7.7261 l -0.17171,3.8753 c -3.59205,0 -20.87278,-7.1375 -20.87278,-7.1375 l -0.5151,-4.1942 c 1.21873,-0.1891 2.39472,-0.2652 3.53193,-0.2697 z m -98.89444,12.2636 c 4.13528,-0.1027 9.98267,3.9244 9.98267,3.9244 51.38086,20.491 78.58569,0.7113 78.58569,0.7113 -7.55613,19.0766 -81.6056,15.5462 -86.14022,14.839 -4.53451,-0.7071 -8.29969,-10.6136 -6.0336,-16.9729 0.63761,-1.7886 1.98734,-2.4616 3.60546,-2.5018 z m 119.47291,0.7359 c 0,0 7.88144,2.0141 3.4338,3.4093 l -3.4338,-3.4093 z m -20.3087,1.3735 c 6.66911,3.0311 16.04098,4.1941 16.04098,4.1941 l -2.2811,3.7282 c -5.38545,-1.4379 -10.78911,-2.3282 -14.47112,-2.8452 0.31169,-1.6687 0.53044,-3.3672 0.71124,-5.0771 z m -132.84031,4.5621 c 1.41697,0.01 2.87183,0.1326 4.39044,0.3924 l -0.63777,5.7394 c 0,0 -21.52335,9.811 -25.999,9.811 l -0.22085,-5.3225 c 0,0 8.77018,-10.6808 22.46718,-10.6203 z m 134.06676,2.9678 c 15.10736,-0.061 24.77261,10.6203 24.77261,10.6203 l -0.24523,5.3225 c -4.93736,0 -28.67259,-9.7864 -28.67259,-9.7864 l -0.71129,-5.764 c 1.67493,-0.2598 3.2936,-0.3862 4.8565,-0.3924 z m -14.42214,6.0582 c -8.44884,10.8696 -61.73491,27.4936 -63.03544,28.133 -1.30053,0.6394 -9.73734,-3.2014 -9.73734,-7.6771 0,-4.4757 4.53754,-7.6771 4.53754,-7.6771 11.04736,5.7545 68.23524,-12.7788 68.23524,-12.7788 z m -114.19953,6.6715 c 0.90489,1.9625 1.92776,3.8605 3.01688,5.7149 -12.04194,2.3374 -26.25146,6.6447 -23.03121,13.7108 l -0.22079,0.3679 -5.54315,-9.9581 c 0,0 19.00955,-2.6326 25.77827,-9.8355 z m 121.2143,1.2999 c 0.0541,0.08 0.0903,0.1661 0.14727,0.2453 -0.0754,-0.029 -0.14545,-0.07 -0.22079,-0.098 0.0243,-0.049 0.0491,-0.098 0.0738,-0.1472 z m -152.31499,0.8585 -4.26782,4.6847 c -5.54221,-1.9181 4.26782,-4.6847 4.26782,-4.6847 z m 188.0269,2.9923 c 0,0 10.79728,2.7666 4.6848,4.6848 l -4.6848,-4.6848 z m -145.74163,1.5207 c 1.79842,0.01 3.66458,0.1387 5.59218,0.417 l -0.80942,6.1809 c 0,0 -27.30764,10.4977 -32.98945,10.4977 l -0.26971,-5.7148 c 0,0 11.09054,-11.4457 28.4764,-11.3808 z m 95.09263,0.024 c -3.72613,9.8024 5.54315,36.1043 5.54315,36.1043 0,0 -4.81812,-6.8527 -8.38833,-18.7879 -3.57026,-11.9353 2.84518,-17.3164 2.84518,-17.3164 z m 24.87073,1.2509 c 8.90128,3.4957 19.89166,4.8565 19.89166,4.8565 l -7.7751,15.4032 c -0.88167,-3.1753 -2.15313,-6.3976 -3.89993,-9.5657 -2.31226,-4.1947 -5.14768,-7.8027 -8.21663,-10.694 z m -91.41355,15.1334 c 1.41691,0.01 2.87182,0.1327 4.39039,0.3924 l -0.63778,5.764 c 0,0 -21.52329,9.7864 -25.99894,9.7864 l -0.1963,-5.3224 c 0,0 8.74546,-10.6808 22.44263,-10.6204 z m 95.31337,0.7604 c 0.20336,-0.01 0.40154,-0.01 0.61318,0 0.78161,0.014 1.60835,0.1395 2.47734,0.417 3.50264,7.8904 2.33007,15.3295 2.33007,15.3295 0,0 -1.54768,-6.5943 -4.4885,-9.9336 -2.94093,-3.339 -5.69031,-4.2432 -5.69031,-4.2432 -0.36695,0.2791 1.70803,-1.4095 4.75822,-1.5697 z m -156.41111,1.9867 -5.39599,5.0036 c -7.03457,-2.0563 5.39599,-5.0036 5.39599,-5.0036 z m 100.56226,9.3204 c 0.29007,-0.01 0.58951,-0.012 0.90749,0 10.18179,0.3771 12.82785,5.2979 12.82785,5.2979 0,0 -8.30245,-1.9008 -12.82785,-0.3925 -4.52513,1.5085 -6.0336,4.1452 -6.0336,4.1452 0.36519,0.7307 -3.8654,-8.797 5.12611,-9.0506 z m -36.42309,1.8886 c 5.36003,21.0678 49.766,47.5341 49.766,47.5341 0,0 -15.29312,-3.1398 -34.43642,-16.139 -19.14325,-12.9993 -15.32958,-31.3951 -15.32958,-31.3951 z m -28.69714,3.9244 -4.26771,4.6847 c -5.54227,-1.9181 4.26771,-4.6847 4.26771,-4.6847 z"
         id="path8078"
         inkscape:label="white outline" />
      <path
         inkscape:connector-curvature="0"
         inkscape:export-ydpi="90"
         inkscape:export-xdpi="90"
         inkscape:export-filename="./path4328.png"
         inkscape:label="white outline"
         id="path8080"
         d="m 780.97371,923.538 c -12.74501,0.2277 -24.52744,15.4522 -24.52744,15.4522 -19.42482,-16.0311 -19.30303,21.5105 -19.30303,21.5105 -18.07057,8.3399 -13.392,37.9194 -13.392,37.9194 l 5.64133,1.2509 c -4.52915,8.872 -7.0884,18.8869 -7.0884,29.4819 0,3.128 0.23209,6.1854 0.6622,9.1978 -9.55781,1.6191 -27.95137,5.8627 -24.7726,14.1278 l -1.69242,3.4093 c 0,0 -8.52445,3.4102 -6.81858,8.9524 1.02298,3.3235 9.22577,9.9867 15.64844,14.8146 -2.34221,0.9247 -9.75279,4.272 -7.92237,9.2958 2.16499,5.9387 29.75178,21.9276 29.75178,21.9276 l -13.51461,-20.554 c 0,0 24.23731,-2.8555 32.76861,-10.6203 1.07974,0.8873 2.17564,1.7553 3.31119,2.5753 -4.69572,2.2329 -7.788,5.1812 -6.32813,8.977 l -1.71685,3.4093 c 0,0 -8.52445,3.4104 -6.81869,8.9526 1.70593,5.5421 23.44836,20.4558 23.44819,20.4558 l -10.66937,-19.1805 c 0,0 12.05346,-1.6684 20.38222,-5.9846 -0.87478,11.9232 8.7736,26.5275 24.77277,35.7364 15.49996,8.9216 32.35163,10.0867 42.35874,4.0225 -4.97444,-0.7513 -10.43033,-2.6341 -15.69747,-5.6659 -14.04621,-8.0846 -21.64585,-21.2408 -16.97302,-29.3592 4.65723,-8.0914 19.76734,-8.1265 33.77427,-0.1227 -4.22767,-5.4715 -10.05327,-10.5752 -17.12017,-14.6428 -0.27837,-0.1603 -0.55465,-0.3107 -0.83385,-0.466 3.99215,-1.9129 7.7553,-4.2178 11.258,-6.8432 0.84703,3.8902 2.32539,7.923 4.4885,11.8468 2.85699,5.1823 6.48599,9.4662 10.3996,12.6071 -5.62031,-10.2708 -5.41844,-21.2318 0.51505,-24.5029 5.95346,-3.2821 15.41524,2.4294 21.09357,12.7297 2.12948,3.8626 3.42135,7.8347 3.89988,11.4543 3.12422,-4.9473 3.77479,-12.3022 1.83957,-20.1125 3.27871,-2.0742 19.88185,-12.7669 21.58408,-17.7824 1.88116,-5.5421 -7.52993,-8.9524 -7.52993,-8.9524 l -1.86412,-3.4093 c 1.77493,-4.184 -2.56333,-7.3373 -8.63361,-9.6393 3.27921,-2.5058 6.08341,-5.0081 6.59796,-6.5243 1.36821,-4.0345 -5.49417,-6.4997 -5.49417,-6.4997 l -1.34901,-2.4773 c 2.53697,-5.9799 -12.0389,-9.0597 -19.74456,-10.2524 -4.51333,-32.0475 -32.5054,-56.7564 -66.19936,-56.7564 -16.17755,0 -31.0426,5.687 -42.62873,15.1579 2.16412,-6.1506 3.6792,-11.16 3.6792,-11.16 8.01018,1.7631 16.01633,-19.4257 16.01633,-19.4257 6.94246,1.5281 33.92148,-7.0884 33.92148,-7.0884 0,0 8.90586,9.2184 13.22018,2.3301 4.31521,-6.8868 13.22024,0.1227 13.22024,0.1227 -20.5767,-28.60204 -26.21974,-8.0205 -26.21974,-8.0205 l -5.71479,-4.6112 c -4.34278,-5.2685 -9.07657,-7.1462 -13.68636,-7.0638 z m 0.19613,3.0414 c 8.85434,-0.2775 12.09207,8.1187 12.09207,8.1185 -4.06259,2.5979 -30.97801,1.9132 -30.97801,1.9132 8.07476,-7.3746 14.24813,-9.8864 18.88594,-10.0317 z m -30.29126,12.4108 c 1.93764,-0.06 3.31114,0.6622 3.31114,0.6622 l -9.81097,14.8636 c -2.36852,2.5701 -1.01554,5.4843 0.49061,7.4564 1.17703,0.9385 2.10879,1.8122 2.15837,2.281 0,0 -1.11261,-0.912 -2.15837,-2.281 -2.18871,-1.7454 -5.24878,-3.7036 -5.24878,-3.7036 1.84823,-16.2057 7.55889,-19.1634 11.258,-19.2786 z M 737.51113,963.91 c -4.33865,3.8466 -1.32447,25.8762 -1.32447,25.8764 l -9.71279,4.415 C 725.0938,974.6943 737.51113,963.91 737.51113,963.91 z m 51.65477,8.3394 c 32.05428,0 57.8845,25.4826 57.88467,56.9035 0,0.4538 -0.0143,0.8978 -0.0243,1.349 -15.73255,23.2599 -57.60304,8.702 -81.92154,-8.3883 -23.07716,-16.2181 -31.71788,1.3347 -33.8478,7.162 -5e-5,-0.041 0,-0.082 0,-0.1227 0,-31.4209 25.85483,-56.9035 57.90927,-56.9035 z m -7.01494,36.742 31.37056,23.9387 c 6.99238,-11.8657 -31.37056,-23.9387 -31.37056,-23.9387 z m 52.66038,1.9376 c -5.43786,-0.174 -7.52999,22.4672 -7.52999,22.4672 l 9.32047,-21.6087 c -0.63557,-0.5562 -1.22794,-0.8404 -1.79048,-0.8585 z m 20.55392,10.7186 c 10.9927,-0.044 18.02766,7.7261 18.02766,7.7261 l -0.17171,3.8753 c -3.59205,0 -20.87278,-7.1375 -20.87278,-7.1375 l -0.5151,-4.1942 c 1.21873,-0.1891 2.39472,-0.2652 3.53193,-0.2697 z m -98.89444,12.2636 c 4.13528,-0.1027 9.98267,3.9244 9.98267,3.9244 51.38086,20.491 78.58569,0.7113 78.58569,0.7113 -7.55613,19.0766 -81.6056,15.5462 -86.14022,14.839 -4.53451,-0.7071 -8.29969,-10.6136 -6.0336,-16.9729 0.63761,-1.7886 1.98734,-2.4616 3.60546,-2.5018 z m 119.47291,0.7359 c 0,0 7.88144,2.0141 3.4338,3.4093 l -3.4338,-3.4093 z m -20.3087,1.3735 c 6.66911,3.0311 16.04098,4.1941 16.04098,4.1941 l -2.2811,3.7282 c -5.38545,-1.4379 -10.78911,-2.3282 -14.47112,-2.8452 0.31169,-1.6687 0.53044,-3.3672 0.71124,-5.0771 z m -132.84031,4.5621 c 1.41697,0.01 2.87183,0.1326 4.39044,0.3924 l -0.63777,5.7394 c 0,0 -21.52335,9.811 -25.999,9.811 l -0.22085,-5.3225 c 0,0 8.77018,-10.6808 22.46718,-10.6203 z m 134.06676,2.9678 c 15.10736,-0.061 24.77261,10.6203 24.77261,10.6203 l -0.24523,5.3225 c -4.93736,0 -28.67259,-9.7864 -28.67259,-9.7864 l -0.71129,-5.764 c 1.67493,-0.2598 3.2936,-0.3862 4.8565,-0.3924 z m -14.42214,6.0582 c -8.44884,10.8696 -61.73491,27.4936 -63.03544,28.133 -1.30053,0.6394 -9.73734,-3.2014 -9.73734,-7.6771 0,-4.4757 4.53754,-7.6771 4.53754,-7.6771 11.04736,5.7545 68.23524,-12.7788 68.23524,-12.7788 z m -114.19953,6.6715 c 0.90489,1.9625 1.92776,3.8605 3.01688,5.7149 -12.04194,2.3374 -26.25146,6.6447 -23.03121,13.7108 l -0.22079,0.3679 -5.54315,-9.9581 c 0,0 19.00955,-2.6326 25.77827,-9.8355 z m 121.2143,1.2999 c 0.0541,0.08 0.0903,0.1661 0.14727,0.2453 -0.0754,-0.029 -0.14545,-0.07 -0.22079,-0.098 0.0243,-0.049 0.0491,-0.098 0.0738,-0.1472 z m -152.31499,0.8585 -4.26782,4.6847 c -5.54221,-1.9181 4.26782,-4.6847 4.26782,-4.6847 z m 188.0269,2.9923 c 0,0 10.79728,2.7666 4.6848,4.6848 l -4.6848,-4.6848 z m -145.74163,1.5207 c 1.79842,0.01 3.66458,0.1387 5.59218,0.417 l -0.80942,6.1809 c 0,0 -27.30764,10.4977 -32.98945,10.4977 l -0.26971,-5.7148 c 0,0 11.09054,-11.4457 28.4764,-11.3808 z m 95.09263,0.024 c -3.72613,9.8024 5.54315,36.1043 5.54315,36.1043 0,0 -4.81812,-6.8527 -8.38833,-18.7879 -3.57026,-11.9353 2.84518,-17.3164 2.84518,-17.3164 z m 24.87073,1.2509 c 8.90128,3.4957 19.89166,4.8565 19.89166,4.8565 l -7.7751,15.4032 c -0.88167,-3.1753 -2.15313,-6.3976 -3.89993,-9.5657 -2.31226,-4.1947 -5.14768,-7.8027 -8.21663,-10.694 z m -91.41355,15.1334 c 1.41691,0.01 2.87182,0.1327 4.39039,0.3924 l -0.63778,5.764 c 0,0 -21.52329,9.7864 -25.99894,9.7864 l -0.1963,-5.3224 c 0,0 8.74546,-10.6808 22.44263,-10.6204 z m 95.31337,0.7604 c 0.20336,-0.01 0.40154,-0.01 0.61318,0 0.78161,0.014 1.60835,0.1395 2.47734,0.417 3.50264,7.8904 2.33007,15.3295 2.33007,15.3295 0,0 -1.54768,-6.5943 -4.4885,-9.9336 -2.94093,-3.339 -5.69031,-4.2432 -5.69031,-4.2432 -0.36695,0.2791 1.70803,-1.4095 4.75822,-1.5697 z m -156.41111,1.9867 -5.39599,5.0036 c -7.03457,-2.0563 5.39599,-5.0036 5.39599,-5.0036 z m 100.56226,9.3204 c 0.29007,-0.01 0.58951,-0.012 0.90749,0 10.18179,0.3771 12.82785,5.2979 12.82785,5.2979 0,0 -8.30245,-1.9008 -12.82785,-0.3925 -4.52513,1.5085 -6.0336,4.1452 -6.0336,4.1452 0.36519,0.7307 -3.8654,-8.797 5.12611,-9.0506 z m -36.42309,1.8886 c 5.36003,21.0678 49.766,47.5341 49.766,47.5341 0,0 -15.29312,-3.1398 -34.43642,-16.139 -19.14325,-12.9993 -15.32958,-31.3951 -15.32958,-31.3951 z m -28.69714,3.9244 -4.26771,4.6847 c -5.54227,-1.9181 4.26771,-4.6847 4.26771,-4.6847 z"
         style="color:#000000;fill:none;stroke:#000000;stroke-width:4;stroke-miterlimit:4;stroke-opacity:1;stroke-dasharray:none;marker:none;visibility:visible;display:inline;overflow:visible;filter:url(#filter4330)" />
      <path
         inkscape:connector-curvature="0"
         inkscape:export-ydpi="90"
         inkscape:export-xdpi="90"
         inkscape:export-filename="./path4328.png"
         style="color:#000000;fill:none;stroke:#ffffff;stroke-width:1;stroke-miterlimit:4;stroke-opacity:0.88235294;stroke-dasharray:none;marker:none;visibility:visible;display:inline;overflow:visible"
         d="m 780.97371,923.538 c -12.74501,0.2277 -24.52744,15.4522 -24.52744,15.4522 -19.42482,-16.0311 -19.30303,21.5105 -19.30303,21.5105 -18.07057,8.3399 -13.392,37.9194 -13.392,37.9194 l 5.64133,1.2509 c -4.52915,8.872 -7.0884,18.8869 -7.0884,29.4819 0,3.128 0.23209,6.1854 0.6622,9.1978 -9.55781,1.6191 -27.95137,5.8627 -24.7726,14.1278 l -1.69242,3.4093 c 0,0 -8.52445,3.4102 -6.81858,8.9524 1.02298,3.3235 9.22577,9.9867 15.64844,14.8146 -2.34221,0.9247 -9.75279,4.272 -7.92237,9.2958 2.16499,5.9387 29.75178,21.9276 29.75178,21.9276 l -13.51461,-20.554 c 0,0 24.23731,-2.8555 32.76861,-10.6203 1.07974,0.8873 2.17564,1.7553 3.31119,2.5753 -4.69572,2.2329 -7.788,5.1812 -6.32813,8.977 l -1.71685,3.4093 c 0,0 -8.52445,3.4104 -6.81869,8.9526 1.70593,5.5421 23.44836,20.4558 23.44819,20.4558 l -10.66937,-19.1805 c 0,0 12.05346,-1.6684 20.38222,-5.9846 -0.87478,11.9232 8.7736,26.5275 24.77277,35.7364 15.49996,8.9216 32.35163,10.0867 42.35874,4.0225 -4.97444,-0.7513 -10.43033,-2.6341 -15.69747,-5.6659 -14.04621,-8.0846 -21.64585,-21.2408 -16.97302,-29.3592 4.65723,-8.0914 19.76734,-8.1265 33.77427,-0.1227 -4.22767,-5.4715 -10.05327,-10.5752 -17.12017,-14.6428 -0.27837,-0.1603 -0.55465,-0.3107 -0.83385,-0.466 3.99215,-1.9129 7.7553,-4.2178 11.258,-6.8432 0.84703,3.8902 2.32539,7.923 4.4885,11.8468 2.85699,5.1823 6.48599,9.4662 10.3996,12.6071 -5.62031,-10.2708 -5.41844,-21.2318 0.51505,-24.5029 5.95346,-3.2821 15.41524,2.4294 21.09357,12.7297 2.12948,3.8626 3.42135,7.8347 3.89988,11.4543 3.12422,-4.9473 3.77479,-12.3022 1.83957,-20.1125 3.27871,-2.0742 19.88185,-12.7669 21.58408,-17.7824 1.88116,-5.5421 -7.52993,-8.9524 -7.52993,-8.9524 l -1.86412,-3.4093 c 1.77493,-4.184 -2.56333,-7.3373 -8.63361,-9.6393 3.27921,-2.5058 6.08341,-5.0081 6.59796,-6.5243 1.36821,-4.0345 -5.49417,-6.4997 -5.49417,-6.4997 l -1.34901,-2.4773 c 2.53697,-5.9799 -12.0389,-9.0597 -19.74456,-10.2524 -4.51333,-32.0475 -32.5054,-56.7564 -66.19936,-56.7564 -16.17755,0 -31.0426,5.687 -42.62873,15.1579 2.16412,-6.1506 3.6792,-11.16 3.6792,-11.16 8.01018,1.7631 16.01633,-19.4257 16.01633,-19.4257 6.94246,1.5281 33.92148,-7.0884 33.92148,-7.0884 0,0 8.90586,9.2184 13.22018,2.3301 4.31521,-6.8868 13.22024,0.1227 13.22024,0.1227 -20.5767,-28.60204 -26.21974,-8.0205 -26.21974,-8.0205 l -5.71479,-4.6112 c -4.34278,-5.2685 -9.07657,-7.1462 -13.68636,-7.0638 z m 0.19613,3.0414 c 8.85434,-0.2775 12.09207,8.1187 12.09207,8.1185 -4.06259,2.5979 -30.97801,1.9132 -30.97801,1.9132 8.07476,-7.3746 14.24813,-9.8864 18.88594,-10.0317 z m -30.29126,12.4108 c 1.93764,-0.06 3.31114,0.6622 3.31114,0.6622 l -9.81097,14.8636 c -2.36852,2.5701 -1.01554,5.4843 0.49061,7.4564 1.17703,0.9385 2.10879,1.8122 2.15837,2.281 0,0 -1.11261,-0.912 -2.15837,-2.281 -2.18871,-1.7454 -5.24878,-3.7036 -5.24878,-3.7036 1.84823,-16.2057 7.55889,-19.1634 11.258,-19.2786 z M 737.51113,963.91 c -4.33865,3.8466 -1.32447,25.8762 -1.32447,25.8764 l -9.71279,4.415 C 725.0938,974.6943 737.51113,963.91 737.51113,963.91 z m 51.65477,8.3394 c 32.05428,0 57.8845,25.4826 57.88467,56.9035 0,0.4538 -0.0143,0.8978 -0.0243,1.349 -15.73255,23.2599 -57.60304,8.702 -81.92154,-8.3883 -23.07716,-16.2181 -31.71788,1.3347 -33.8478,7.162 -5e-5,-0.041 0,-0.082 0,-0.1227 0,-31.4209 25.85483,-56.9035 57.90927,-56.9035 z m -7.01494,36.742 31.37056,23.9387 c 6.99238,-11.8657 -31.37056,-23.9387 -31.37056,-23.9387 z m 52.66038,1.9376 c -5.43786,-0.174 -7.52999,22.4672 -7.52999,22.4672 l 9.32047,-21.6087 c -0.63557,-0.5562 -1.22794,-0.8404 -1.79048,-0.8585 z m 20.55392,10.7186 c 10.9927,-0.044 18.02766,7.7261 18.02766,7.7261 l -0.17171,3.8753 c -3.59205,0 -20.87278,-7.1375 -20.87278,-7.1375 l -0.5151,-4.1942 c 1.21873,-0.1891 2.39472,-0.2652 3.53193,-0.2697 z m -98.89444,12.2636 c 4.13528,-0.1027 9.98267,3.9244 9.98267,3.9244 51.38086,20.491 78.58569,0.7113 78.58569,0.7113 -7.55613,19.0766 -81.6056,15.5462 -86.14022,14.839 -4.53451,-0.7071 -8.29969,-10.6136 -6.0336,-16.9729 0.63761,-1.7886 1.98734,-2.4616 3.60546,-2.5018 z m 119.47291,0.7359 c 0,0 7.88144,2.0141 3.4338,3.4093 l -3.4338,-3.4093 z m -20.3087,1.3735 c 6.66911,3.0311 16.04098,4.1941 16.04098,4.1941 l -2.2811,3.7282 c -5.38545,-1.4379 -10.78911,-2.3282 -14.47112,-2.8452 0.31169,-1.6687 0.53044,-3.3672 0.71124,-5.0771 z m -132.84031,4.5621 c 1.41697,0.01 2.87183,0.1326 4.39044,0.3924 l -0.63777,5.7394 c 0,0 -21.52335,9.811 -25.999,9.811 l -0.22085,-5.3225 c 0,0 8.77018,-10.6808 22.46718,-10.6203 z m 134.06676,2.9678 c 15.10736,-0.061 24.77261,10.6203 24.77261,10.6203 l -0.24523,5.3225 c -4.93736,0 -28.67259,-9.7864 -28.67259,-9.7864 l -0.71129,-5.764 c 1.67493,-0.2598 3.2936,-0.3862 4.8565,-0.3924 z m -14.42214,6.0582 c -8.44884,10.8696 -61.73491,27.4936 -63.03544,28.133 -1.30053,0.6394 -9.73734,-3.2014 -9.73734,-7.6771 0,-4.4757 4.53754,-7.6771 4.53754,-7.6771 11.04736,5.7545 68.23524,-12.7788 68.23524,-12.7788 z m -114.19953,6.6715 c 0.90489,1.9625 1.92776,3.8605 3.01688,5.7149 -12.04194,2.3374 -26.25146,6.6447 -23.03121,13.7108 l -0.22079,0.3679 -5.54315,-9.9581 c 0,0 19.00955,-2.6326 25.77827,-9.8355 z m 121.2143,1.2999 c 0.0541,0.08 0.0903,0.1661 0.14727,0.2453 -0.0754,-0.029 -0.14545,-0.07 -0.22079,-0.098 0.0243,-0.049 0.0491,-0.098 0.0738,-0.1472 z m -152.31499,0.8585 -4.26782,4.6847 c -5.54221,-1.9181 4.26782,-4.6847 4.26782,-4.6847 z m 188.0269,2.9923 c 0,0 10.79728,2.7666 4.6848,4.6848 l -4.6848,-4.6848 z m -145.74163,1.5207 c 1.79842,0.01 3.66458,0.1387 5.59218,0.417 l -0.80942,6.1809 c 0,0 -27.30764,10.4977 -32.98945,10.4977 l -0.26971,-5.7148 c 0,0 11.09054,-11.4457 28.4764,-11.3808 z m 95.09263,0.024 c -3.72613,9.8024 5.54315,36.1043 5.54315,36.1043 0,0 -4.81812,-6.8527 -8.38833,-18.7879 -3.57026,-11.9353 2.84518,-17.3164 2.84518,-17.3164 z m 24.87073,1.2509 c 8.90128,3.4957 19.89166,4.8565 19.89166,4.8565 l -7.7751,15.4032 c -0.88167,-3.1753 -2.15313,-6.3976 -3.89993,-9.5657 -2.31226,-4.1947 -5.14768,-7.8027 -8.21663,-10.694 z m -91.41355,15.1334 c 1.41691,0.01 2.87182,0.1327 4.39039,0.3924 l -0.63778,5.764 c 0,0 -21.52329,9.7864 -25.99894,9.7864 l -0.1963,-5.3224 c 0,0 8.74546,-10.6808 22.44263,-10.6204 z m 95.31337,0.7604 c 0.20336,-0.01 0.40154,-0.01 0.61318,0 0.78161,0.014 1.60835,0.1395 2.47734,0.417 3.50264,7.8904 2.33007,15.3295 2.33007,15.3295 0,0 -1.54768,-6.5943 -4.4885,-9.9336 -2.94093,-3.339 -5.69031,-4.2432 -5.69031,-4.2432 -0.36695,0.2791 1.70803,-1.4095 4.75822,-1.5697 z m -156.41111,1.9867 -5.39599,5.0036 c -7.03457,-2.0563 5.39599,-5.0036 5.39599,-5.0036 z m 100.56226,9.3204 c 0.29007,-0.01 0.58951,-0.012 0.90749,0 10.18179,0.3771 12.82785,5.2979 12.82785,5.2979 0,0 -8.30245,-1.9008 -12.82785,-0.3925 -4.52513,1.5085 -6.0336,4.1452 -6.0336,4.1452 0.36519,0.7307 -3.8654,-8.797 5.12611,-9.0506 z m -36.42309,1.8886 c 5.36003,21.0678 49.766,47.5341 49.766,47.5341 0,0 -15.29312,-3.1398 -34.43642,-16.139 -19.14325,-12.9993 -15.32958,-31.3951 -15.32958,-31.3951 z m -28.69714,3.9244 -4.26771,4.6847 c -5.54227,-1.9181 4.26771,-4.6847 4.26771,-4.6847 z"
         id="path8082"
         inkscape:label="white outline" />
    </g>
  </g>
</svg>
